<svg width="33" height="33" viewBox="0 0 33 33" fill="none" xmlns="http://www.w3.org/2000/svg">
<circle cx="16.5" cy="16.5" r="16" stroke="#45197D"/>
<circle cx="16.5" cy="16.5" r="12" fill="#45197D" stroke="#45197D"/>
<path d="M11.304 18.376C10.92 18.376 10.6 18.248 10.344 17.992C10.088 17.736 9.96 17.416 9.96 17.032C9.96 16.648 10.088 16.336 10.344 16.096C10.6 15.856 10.92 15.736 11.304 15.736H21.072C21.456 15.736 21.776 15.864 22.032 16.12C22.288 16.36 22.416 16.672 22.416 17.056C22.416 17.44 22.288 17.76 22.032 18.016C21.776 18.256 21.456 18.376 21.072 18.376H11.304ZM16.152 23.056C15.704 23.056 15.328 22.912 15.024 22.624C14.736 22.336 14.592 21.968 14.592 21.52V12.16C14.592 11.712 14.744 11.344 15.048 11.056C15.352 10.768 15.728 10.624 16.176 10.624C16.64 10.624 17.008 10.768 17.28 11.056C17.568 11.344 17.712 11.712 17.712 12.16V21.52C17.712 21.968 17.568 22.336 17.28 22.624C16.992 22.912 16.616 23.056 16.152 23.056Z" fill="white"/>
</svg>
