<svg width="46" height="44" viewBox="0 0 46 44" fill="none" xmlns="http://www.w3.org/2000/svg">
<path d="M45 22C45 33.5566 35.1926 43 23 43C10.8074 43 1 33.5566 1 22C1 10.4434 10.8074 1 23 1C35.1926 1 45 10.4434 45 22Z" stroke="#3C2481" stroke-width="2"/>
<path d="M24.3468 28.8613L23.455 29.7256C23.0773 30.0915 22.4667 30.0915 22.0931 29.7256L14.2832 22.1618C13.9056 21.7959 13.9056 21.2041 14.2832 20.8421L22.0931 13.2744C22.4707 12.9085 23.0814 12.9085 23.455 13.2744L24.3468 14.1387C24.7285 14.5085 24.7205 15.1119 24.3308 15.4739L19.4898 19.9429H31.0358C31.5701 19.9429 32 20.3594 32 20.8771V22.1229C32 22.6406 31.5701 23.0571 31.0358 23.0571H19.4898L24.3308 27.5261C24.7245 27.8881 24.7325 28.4915 24.3468 28.8613Z" fill="#3C2481"/>
</svg>
