<svg width="72" height="72" viewBox="0 0 72 72" fill="none" xmlns="http://www.w3.org/2000/svg">
<g filter="url(#filter0_d_415_1204)">
<rect x="12" y="8" width="48" height="48" rx="20" fill="white" shape-rendering="crispEdges"/>
</g>
<path d="M31.625 36.3571C31.625 36.7127 31.9043 37 32.25 37H35.375V33.7857H31.625V36.3571ZM36.625 37H39.75C40.0957 37 40.375 36.7127 40.375 36.3571V33.7857H36.625V37ZM40.375 30.5714H39.5527C39.6738 30.3283 39.75 30.0592 39.75 29.7679C39.75 28.7935 38.9785 28 38.0313 28C37.2188 28 36.6934 28.4279 36.0195 29.3721C35.3457 28.4279 34.8203 28 34.0078 28C33.0605 28 32.2891 28.7935 32.2891 29.7679C32.2891 30.0592 32.3633 30.3283 32.4863 30.5714H31.625C31.2793 30.5714 31 30.8587 31 31.2143V32.8214C31 32.9982 31.1406 33.1429 31.3125 33.1429H40.6875C40.8594 33.1429 41 32.9982 41 32.8214V31.2143C41 30.8587 40.7207 30.5714 40.375 30.5714ZM34.0059 30.5714C33.5742 30.5714 33.2246 30.2118 33.2246 29.7679C33.2246 29.3239 33.5742 28.9643 34.0059 28.9643C34.3945 28.9643 34.6816 29.0306 35.6875 30.5714H34.0059ZM38.0313 30.5714H36.3496C37.3535 29.0346 37.6328 28.9643 38.0313 28.9643C38.4629 28.9643 38.8125 29.3239 38.8125 29.7679C38.8125 30.2118 38.4629 30.5714 38.0313 30.5714Z" fill="#2F1155"/>
<path d="M41.5 25.8333L47.3333 20" stroke="#2F1155" stroke-width="1.5" stroke-linecap="round" stroke-linejoin="round"/>
<path d="M47.3332 24.6667V20H42.6665" stroke="#2F1155" stroke-width="1.5" stroke-linecap="round" stroke-linejoin="round"/>
<path d="M47.3333 31.6667C47.3333 38.1067 42.1067 43.3333 35.6667 43.3333C29.2267 43.3333 24 38.1067 24 31.6667C24 25.2267 29.2267 20 35.6667 20" stroke="#2F1155" stroke-width="1.5" stroke-linecap="round" stroke-linejoin="round"/>
<defs>
<filter id="filter0_d_415_1204" x="0" y="0" width="72" height="72" filterUnits="userSpaceOnUse" color-interpolation-filters="sRGB">
<feFlood flood-opacity="0" result="BackgroundImageFix"/>
<feColorMatrix in="SourceAlpha" type="matrix" values="0 0 0 0 0 0 0 0 0 0 0 0 0 0 0 0 0 0 127 0" result="hardAlpha"/>
<feOffset dy="4"/>
<feGaussianBlur stdDeviation="6"/>
<feComposite in2="hardAlpha" operator="out"/>
<feColorMatrix type="matrix" values="0 0 0 0 0.153701 0 0 0 0 0.134062 0 0 0 0 0.275 0 0 0 0.1 0"/>
<feBlend mode="normal" in2="BackgroundImageFix" result="effect1_dropShadow_415_1204"/>
<feBlend mode="normal" in="SourceGraphic" in2="effect1_dropShadow_415_1204" result="shape"/>
</filter>
</defs>
</svg>
