<svg width="46" height="76" viewBox="0 0 46 76" fill="none" xmlns="http://www.w3.org/2000/svg">
<path d="M1.33 44V42.53H1.785C2.29833 42.53 2.765 42.4833 3.185 42.39C3.62833 42.2733 3.97833 42.0517 4.235 41.725C4.515 41.375 4.655 40.8617 4.655 40.185V23C4.655 22.2533 4.52667 21.705 4.27 21.355C4.01333 21.005 3.66333 20.7717 3.22 20.655C2.8 20.5383 2.32167 20.48 1.785 20.48H1.33V19.01H18.97L19.145 25.135H17.325L17.15 23.63C17.1033 23.1167 16.9633 22.65 16.73 22.23C16.52 21.7867 16.1933 21.4367 15.75 21.18C15.33 20.9 14.77 20.76 14.07 20.76H8.19V30.07H16.625V31.785H8.19V42.25H14.945C15.6917 42.25 16.2867 42.1217 16.73 41.865C17.1967 41.585 17.5467 41.235 17.78 40.815C18.0367 40.3717 18.2 39.8933 18.27 39.38L18.515 37.875H20.335L20.09 44H1.33ZM19.0336 64V62.53H19.4886C20.0253 62.53 20.5036 62.4717 20.9236 62.355C21.3669 62.2383 21.7169 62.005 21.9736 61.655C22.2303 61.2817 22.3586 60.7333 22.3586 60.01V42.86C22.3586 42.16 22.2186 41.6467 21.9386 41.32C21.6819 40.97 21.3319 40.7483 20.8886 40.655C20.4686 40.5383 20.0019 40.48 19.4886 40.48H19.0336V39.01H28.8686C31.8086 39.01 33.9786 39.6633 35.3786 40.97C36.7786 42.2533 37.4786 44.0383 37.4786 46.325C37.4786 47.375 37.3153 48.3783 36.9886 49.335C36.6619 50.2683 36.1253 51.1083 35.3786 51.855C34.6553 52.6017 33.6869 53.1967 32.4736 53.64C31.2836 54.06 29.8253 54.27 28.0986 54.27H25.8936V60.185C25.8936 60.8617 26.0219 61.375 26.2786 61.725C26.5586 62.0517 26.9086 62.2733 27.3286 62.39C27.7719 62.4833 28.2503 62.53 28.7636 62.53H29.9186V64H19.0336ZM27.7486 52.625C28.7986 52.625 29.6969 52.52 30.4436 52.31C31.2136 52.0767 31.8319 51.715 32.2986 51.225C32.7886 50.735 33.1386 50.105 33.3486 49.335C33.5819 48.5417 33.6986 47.585 33.6986 46.465C33.6986 45.1583 33.5236 44.085 33.1736 43.245C32.8236 42.3817 32.2519 41.74 31.4586 41.32C30.6653 40.9 29.6036 40.69 28.2736 40.69H25.8936V52.625H27.7486Z" fill="white"/>
<rect x="12" y="55" width="22" height="4" fill="#3C2481"/>
</svg>
