<svg width="30" height="22" viewBox="0 0 30 22" fill="none" xmlns="http://www.w3.org/2000/svg">
<path d="M21.765 10.2439L19.875 10.2414C19.8737 11.2494 19.9718 11.8976 20.1694 12.1858C20.2772 12.348 20.4211 12.4472 20.601 12.4834C20.781 12.5376 21.0419 12.565 21.3839 12.5654L21.7619 12.5659L21.7574 15.9949L21.3794 15.9944C19.8314 15.9924 18.6436 15.8648 17.8159 15.6117C16.9703 15.3586 16.3498 14.9438 15.9546 14.3673C15.5952 13.8628 15.3801 13.2145 15.3091 12.4224C15.2202 11.6303 15.1767 10.4422 15.1788 8.85825L15.1802 7.77825L21.7682 7.78692L21.765 10.2439ZM20.8581 1.79172C22.5141 1.7939 23.8189 1.93061 24.7726 2.20187C25.7082 2.4911 26.4096 2.94203 26.8768 3.55464C27.2901 4.09519 27.5592 4.76154 27.6842 5.55371C27.8091 6.36387 27.8706 7.47095 27.8688 8.87495C27.8671 10.1709 27.8207 11.1969 27.7297 11.9528C27.6387 12.7267 27.4489 13.3834 27.1602 13.923C26.8354 14.5166 26.3398 14.9749 25.6733 15.2981C24.9889 15.6392 24.0616 15.8539 22.8915 15.9424L22.9022 7.78841C22.903 7.17641 22.8766 6.73538 22.823 6.46531C22.7693 6.21324 22.6435 6.02407 22.4457 5.89781C22.2299 5.75353 21.897 5.67209 21.447 5.6535C20.8711 5.61674 20.2591 5.59793 19.6111 5.59708C18.4591 5.59556 17.6221 5.62146 17.1 5.67477L15.7229 5.78096L15.7274 2.29796C16.4477 2.08291 17.4379 1.94021 18.698 1.86987C19.3101 1.81668 20.0301 1.79063 20.8581 1.79172Z" fill="white"/>
<path d="M8.23698 10.2261L10.127 10.2286C10.1257 11.2366 10.0258 11.8845 9.82742 12.1722C9.71921 12.3341 9.57508 12.4329 9.39503 12.4686C9.21496 12.5224 8.95392 12.549 8.61192 12.5486L8.23392 12.5481L8.22941 15.9771L8.60741 15.9776C10.1554 15.9796 11.3436 15.8552 12.1719 15.6043C13.0182 15.3534 13.6398 14.9402 14.0365 14.3647C14.3972 13.8612 14.6141 13.2135 14.6871 12.4216C14.7781 11.6297 14.8247 10.4418 14.8268 8.85777L14.8282 7.77778L8.24021 7.7691L8.23698 10.2261ZM9.1661 1.77632C7.5101 1.77414 6.20493 1.90742 5.25057 2.17616C4.3142 2.46293 3.6116 2.91201 3.1428 3.52339C2.72809 4.06285 2.45721 4.72849 2.33017 5.52032C2.2031 6.33016 2.13865 7.43707 2.1368 8.84107C2.13509 10.1371 2.17874 11.1631 2.26775 11.9192C2.35673 12.6934 2.54486 13.3506 2.83215 13.891C3.15537 14.4854 3.64976 14.9451 4.31534 15.2699C4.99889 15.6128 5.9256 15.8301 7.09548 15.9216L7.10622 7.76761C7.10702 7.15561 7.1346 6.71465 7.18896 6.44472C7.24329 6.19279 7.36954 6.00396 7.5677 5.87822C7.78389 5.7345 8.117 5.65394 8.56702 5.63653C9.14307 5.60129 9.75509 5.5841 10.4031 5.58495C11.5551 5.58647 12.3921 5.61457 12.914 5.66925L14.2908 5.77907L14.2954 2.29607C13.5757 2.07912 12.5859 1.93382 11.326 1.86016C10.7141 1.80536 9.9941 1.77741 9.1661 1.77632Z" fill="white"/>
</svg>
