<svg width="48" height="48" viewBox="0 0 48 48" fill="none" xmlns="http://www.w3.org/2000/svg">
<rect width="48" height="48" rx="20" fill="white"/>
<path d="M13.5625 33.3125C13.5625 34.1768 14.2607 34.875 15.125 34.875H22.9375V27.0625H13.5625V33.3125ZM26.0625 34.875H33.875C34.7393 34.875 35.4375 34.1768 35.4375 33.3125V27.0625H26.0625V34.875ZM35.4375 19.25H33.3818C33.6846 18.6592 33.875 18.0049 33.875 17.2969C33.875 14.9287 31.9463 13 29.5781 13C27.5469 13 26.2334 14.04 24.5488 16.335C22.8643 14.04 21.5508 13 19.5195 13C17.1514 13 15.2227 14.9287 15.2227 17.2969C15.2227 18.0049 15.4082 18.6592 15.7158 19.25H13.5625C12.6982 19.25 12 19.9482 12 20.8125V24.7188C12 25.1484 12.3516 25.5 12.7812 25.5H36.2188C36.6484 25.5 37 25.1484 37 24.7188V20.8125C37 19.9482 36.3018 19.25 35.4375 19.25ZM19.5146 19.25C18.4355 19.25 17.5615 18.376 17.5615 17.2969C17.5615 16.2178 18.4355 15.3438 19.5146 15.3438C20.4863 15.3438 21.2041 15.5049 23.7188 19.25H19.5146ZM29.5781 19.25H25.374C27.8838 15.5146 28.582 15.3438 29.5781 15.3438C30.6572 15.3438 31.5312 16.2178 31.5312 17.2969C31.5312 18.376 30.6572 19.25 29.5781 19.25Z" fill="black"/>
</svg>
