<svg width="20" height="20" viewBox="0 0 20 20" fill="none" xmlns="http://www.w3.org/2000/svg">
<path d="M19 9.99791C19.003 11.7847 18.4715 13.5315 17.474 15.0139C16.6514 16.2409 15.5391 17.2462 14.2355 17.9411C12.9319 18.636 11.4772 18.9989 10 18.9979C8.52279 18.9989 7.06808 18.636 5.76451 17.9411C4.46093 17.2462 3.34865 16.2409 2.526 15.0139C1.74273 13.8463 1.2439 12.5115 1.06951 11.1164C0.895109 9.72124 1.05 8.30467 1.52175 6.9802C1.9935 5.65573 2.769 4.46021 3.78607 3.48947C4.80314 2.51873 6.0335 1.79978 7.37851 1.39025C8.72352 0.980724 10.1458 0.892009 11.5312 1.13122C12.9167 1.37043 14.2269 1.93091 15.3567 2.76773C16.4865 3.60455 17.4046 4.69444 18.0373 5.95002C18.67 7.20559 18.9997 8.59194 19 9.99791Z" stroke="#5100B9"/>
<path d="M11.4999 6.99792C11.4999 7.39575 11.3419 7.77728 11.0605 8.05859C10.7792 8.33989 10.3977 8.49792 9.99989 8.49792V9.49792C10.3282 9.49792 10.6533 9.43326 10.9566 9.30762C11.2599 9.18199 11.5355 8.99784 11.7677 8.76569C11.9998 8.53355 12.1839 8.25795 12.3096 7.95463C12.4352 7.65132 12.4999 7.32623 12.4999 6.99792H11.4999ZM9.99989 8.49792C9.60206 8.49792 9.22053 8.33989 8.93923 8.05859C8.65792 7.77728 8.49989 7.39575 8.49989 6.99792H7.49989C7.49989 7.32623 7.56455 7.65132 7.69019 7.95463C7.81582 8.25795 7.99997 8.53355 8.23212 8.76569C8.70096 9.23453 9.33685 9.49792 9.99989 9.49792V8.49792ZM8.49989 6.99792C8.49989 6.6001 8.65792 6.21857 8.93923 5.93726C9.22053 5.65596 9.60206 5.49792 9.99989 5.49792V4.49792C9.33685 4.49792 8.70096 4.76132 8.23212 5.23016C7.76328 5.699 7.49989 6.33488 7.49989 6.99792H8.49989ZM9.99989 5.49792C10.3977 5.49792 10.7792 5.65596 11.0605 5.93726C11.3419 6.21857 11.4999 6.6001 11.4999 6.99792H12.4999C12.4999 6.33488 12.2365 5.699 11.7677 5.23016C11.2988 4.76132 10.6629 4.49792 9.99989 4.49792V5.49792ZM3.16589 15.8539L2.68589 15.7119L2.60889 15.9729L2.78589 16.1799L3.16589 15.8539ZM16.8339 15.8539L17.2139 16.1799L17.3909 15.9729L17.3129 15.7119L16.8339 15.8539ZM6.99989 13.4979H12.9999V12.4979H6.99989V13.4979ZM6.99989 12.4979C6.03082 12.4981 5.08768 12.811 4.31064 13.39C3.53359 13.969 2.96313 14.7834 2.68589 15.7119L3.64489 15.9969C3.86075 15.2748 4.3038 14.6416 4.90823 14.1914C5.51266 13.7412 6.24621 13.498 6.99989 13.4979V12.4979ZM9.99989 18.4979C8.77315 18.4992 7.56074 18.2344 6.44631 17.7216C5.33188 17.2089 4.34197 16.4604 3.54489 15.5279L2.78589 16.1799C3.67694 17.2217 4.78332 18.0578 6.02876 18.6306C7.27419 19.2034 8.62904 19.4993 9.99989 19.4979V18.4979ZM12.9999 13.4979C13.7537 13.4981 14.4873 13.7414 15.0918 14.1918C15.6962 14.6422 16.1392 15.2756 16.3549 15.9979L17.3129 15.7119C17.0356 14.7834 16.4662 13.969 15.6891 13.39C14.9121 12.811 13.969 12.4981 12.9999 12.4979V13.4979ZM16.4549 15.5279C15.6578 16.4604 14.6679 17.2089 13.5535 17.7216C12.439 18.2344 11.2266 18.4992 9.99989 18.4979V19.4979C11.3707 19.4993 12.7256 19.2034 13.971 18.6306C15.2165 18.0578 16.3228 17.2217 17.2139 16.1799L16.4539 15.5289L16.4549 15.5279Z" fill="#5100B9"/>
</svg>
