<svg width="72" height="72" viewBox="0 0 72 72" fill="none" xmlns="http://www.w3.org/2000/svg">
<g filter="url(#filter0_d_391_1198)">
<rect x="12" y="8" width="48" height="48" rx="20" fill="white" shape-rendering="crispEdges"/>
<path d="M33.0835 34.0417C33.0835 35.1734 33.9585 36.0834 35.0318 36.0834H37.2251C38.1585 36.0834 38.9168 35.29 38.9168 34.2984C38.9168 33.2367 38.4502 32.8517 37.7618 32.6067L34.2502 31.3817C33.5618 31.1367 33.0952 30.7634 33.0952 29.69C33.0952 28.71 33.8535 27.905 34.7868 27.905H36.9802C38.0535 27.905 38.9285 28.815 38.9285 29.9467" stroke="#2F1155" stroke-width="1.5" stroke-linecap="round" stroke-linejoin="round"/>
<path d="M36 26.75V37.25" stroke="#2F1155" stroke-width="1.5" stroke-linecap="round" stroke-linejoin="round"/>
<path d="M47.6668 31.9999C47.6668 38.4399 42.4402 43.6666 36.0002 43.6666C29.5602 43.6666 24.3335 38.4399 24.3335 31.9999C24.3335 25.5599 29.5602 20.3333 36.0002 20.3333" stroke="#2F1155" stroke-width="1.5" stroke-linecap="round" stroke-linejoin="round"/>
<path d="M47.6667 24.9999V20.3333H43" stroke="#2F1155" stroke-width="1.5" stroke-linecap="round" stroke-linejoin="round"/>
<path d="M41.8335 26.1666L47.6668 20.3333" stroke="#2F1155" stroke-width="1.5" stroke-linecap="round" stroke-linejoin="round"/>
</g>
<defs>
<filter id="filter0_d_391_1198" x="0" y="0" width="72" height="72" filterUnits="userSpaceOnUse" color-interpolation-filters="sRGB">
<feFlood flood-opacity="0" result="BackgroundImageFix"/>
<feColorMatrix in="SourceAlpha" type="matrix" values="0 0 0 0 0 0 0 0 0 0 0 0 0 0 0 0 0 0 127 0" result="hardAlpha"/>
<feOffset dy="4"/>
<feGaussianBlur stdDeviation="6"/>
<feComposite in2="hardAlpha" operator="out"/>
<feColorMatrix type="matrix" values="0 0 0 0 0.153701 0 0 0 0 0.134062 0 0 0 0 0.275 0 0 0 0.1 0"/>
<feBlend mode="normal" in2="BackgroundImageFix" result="effect1_dropShadow_391_1198"/>
<feBlend mode="normal" in="SourceGraphic" in2="effect1_dropShadow_391_1198" result="shape"/>
</filter>
</defs>
</svg>
